<svg width="37" height="76" viewBox="0 0 37 76" fill="none" xmlns="http://www.w3.org/2000/svg">
<path fill-rule="evenodd" clip-rule="evenodd" d="M5.51164 58.3349C3.77077 57.7923 1.91952 57.5 0 57.5C1.91952 57.5 3.77077 57.2076 5.51164 56.6651C11.2962 54.8621 15.8621 50.2962 17.6651 44.5116C18.2077 42.7708 18.5 40.9195 18.5 39C18.5 40.9195 18.7923 42.7708 19.3349 44.5116C21.1379 50.2962 25.7038 54.8621 31.4884 56.6651C33.2292 57.2076 35.0805 57.5 37 57.5C35.0805 57.5 33.2292 57.7923 31.4884 58.3349C25.7038 60.1378 21.1379 64.7038 19.3349 70.4884C18.7923 72.2292 18.5 74.0805 18.5 76C18.5 74.0805 18.2077 72.2292 17.6651 70.4884C15.8621 64.7038 11.2962 60.1378 5.51164 58.3349ZM18.5 68.128C20.5327 63.357 24.357 59.5327 29.128 57.5C24.357 55.4673 20.5327 51.643 18.5 46.872C16.4673 51.643 12.643 55.4673 7.87198 57.5C12.643 59.5327 16.4673 63.357 18.5 68.128Z" fill="#8F8F8F"/>
<path d="M17.8 0H19.4V44.7187H17.6056L17.8 0Z" fill="#8F8F8F"/>
</svg>
