<svg width="60" height="60" viewBox="0 0 60 60" fill="none" xmlns="http://www.w3.org/2000/svg">
<path d="M30 34C32.2092 34 34 32.2091 34 30C34 27.7909 32.2092 26 30 26C27.7908 26 26 27.7909 26 30C26 32.2091 27.7908 34 30 34Z" fill="white"/>
<path fill-rule="evenodd" clip-rule="evenodd" d="M0 30C2.41113 30 4.75562 30.2844 7.00195 30.8215C17.9468 33.4384 26.5615 42.0533 29.1785 52.9979C29.7156 55.2444 30 57.589 30 60C30 57.589 30.2844 55.2444 30.8215 52.9979C33.4385 42.0533 42.0532 33.4384 52.998 30.8215C55.2444 30.2844 57.5889 30 60 30C57.5889 30 55.2444 29.7156 52.998 29.1785C42.0532 26.5616 33.4385 17.9467 30.8215 7.00204C30.2844 4.75562 30 2.41101 30 0C30 2.41101 29.7156 4.75562 29.1785 7.00204C26.5615 17.9467 17.9468 26.5616 7.00195 29.1785C4.75562 29.7156 2.41113 30 0 30ZM50.0449 30C40.6003 33.1324 33.1326 40.6003 30 50.045C26.8674 40.6003 19.3997 33.1324 9.95508 30C19.3997 26.8676 26.8674 19.3997 30 9.95496C33.1326 19.3997 40.6003 26.8676 50.0449 30Z" fill="white"/>
</svg>
